<svg xmlns="http://www.w3.org/2000/svg" width="51" height="50" viewBox="0 0 51 50" fill="none">
<path d="M44.4167 35.4199L32.9617 33.3398C31.9167 31.25 31.9167 30.3418 31.9167 29.1699C32.9617 28.125 35.0417 27.0898 35.0417 26.0449C36.0867 22.9199 36.0867 20.8398 36.0867 20.8398C36.6238 20.0586 38.1667 18.7598 38.1667 16.6699C38.1667 14.5801 36.0867 12.5 36.0867 11.4648C36.0867 3.125 31.8386 0 25.6667 0C19.7585 0 15.2468 3.125 15.2468 11.4551C15.2468 12.5 13.1667 14.5801 13.1667 16.6602C13.1667 18.7402 14.6511 20.1172 15.2468 20.8301C15.2468 20.8301 15.2468 22.9102 16.2917 26.0352C16.2917 27.0801 18.3718 28.1152 19.4167 29.1602C19.4167 30.2051 19.4167 31.2402 18.3718 33.3301L6.91675 35.4199C2.74683 36.4551 0.666748 43.75 0.666748 50H50.6667C50.6667 43.75 48.5867 36.4551 44.4167 35.4199Z" fill="#8E05A2"/>
</svg>